<?xml version="1.0" standalone="no"?>
<!DOCTYPE svg PUBLIC "-//W3C//DTD SVG 20010904//EN"
 "http://www.w3.org/TR/2001/REC-SVG-20010904/DTD/svg10.dtd">
<svg version="1.0" xmlns="http://www.w3.org/2000/svg"
 width="360.000000pt" height="360.000000pt" viewBox="0 0 360.000000 360.000000"
 preserveAspectRatio="xMidYMid meet">

<g transform="translate(0.000000,360.000000) scale(0.100000,-0.100000)"
fill="#000000" stroke="none">
<path d="M1590 3256 c-327 -59 -590 -195 -820 -426 -174 -174 -291 -360 -365
-584 -61 -183 -70 -246 -70 -491 0 -198 3 -229 23 -305 62 -227 190 -389 398
-506 58 -32 64 -39 64 -68 0 -17 7 -58 15 -91 50 -192 204 -329 449 -400 154
-44 301 -58 571 -52 264 5 358 18 510 68 226 75 369 221 405 415 12 64 13 65
64 91 129 65 247 172 315 286 44 75 86 200 107 317 25 144 15 447 -19 590 -70
292 -198 522 -407 730 -214 214 -463 350 -760 415 -102 23 -380 29 -480 11z
m408 -139 c195 -68 347 -233 397 -432 19 -76 19 -212 0 -294 -63 -266 -308
-461 -585 -464 -150 -2 -267 36 -387 127 -147 111 -233 288 -233 478 0 115 14
176 62 277 75 156 230 282 403 325 92 24 251 16 343 -17z m-1432 -914 c18
-168 -16 -349 -87 -468 l-30 -50 4 125 c3 69 13 161 22 205 20 98 67 255 77
255 3 0 10 -30 14 -67z m2517 -26 c39 -134 56 -227 63 -357 6 -109 5 -114 -11
-92 -30 41 -76 154 -91 221 -20 94 -16 321 5 321 3 0 18 -42 34 -93z m-963
-891 c249 -39 412 -112 496 -224 40 -51 51 -112 37 -202 -43 -276 -322 -410
-853 -410 -370 0 -617 65 -749 197 -69 69 -100 141 -108 250 -4 55 -2 84 11
117 19 49 87 118 156 158 100 58 287 108 475 128 119 12 416 4 535 -14z"/>
<path d="M1456 1169 l-26 -21 2 -210 3 -211 28 -21 c26 -19 30 -19 55 -5 l27
15 3 220 c3 233 2 234 -44 248 -14 4 -30 -1 -48 -15z"/>
<path d="M2082 1180 c-38 -16 -43 -52 -40 -258 3 -190 3 -194 27 -213 30 -24
42 -24 75 2 l26 20 0 205 c0 204 0 205 -25 229 -26 27 -29 28 -63 15z"/>
</g>
</svg>
